<svg id="SvgjsSvg1001" width="500" height="180" xmlns="http://www.w3.org/2000/svg" version="1.1" xmlns:xlink="http://www.w3.org/1999/xlink" xmlns:svgjs="http://svgjs.com/svgjs" stroke="none" fill="#95a9c2">
    <g id="SvgjsG1011">
        <path id="SvgjsPath1008" d="M0 200 L100 71 L200 200" stroke-opacity="0.6" stroke="#000000" stroke-width="1" fill="none" transform="matrix(0.8,0,0,1,20,0)"></path>
        <path id="SvgjsPath1009" d="M0 200 L100 71 L200 200 L142 140 Q100 90 58 140 L0 200" transform="matrix(0.8,0,0,1,20,0)"></path>
        <path id="SvgjsPath1010" d="M0 200 L200 200 L142 140 Q100 90 58 140 L0 200" stroke="none" fill="#513d62" transform="matrix(0.8,0,0,1,20,0)"></path>
    </g>
    <g id="SvgjsG1043" transform="matrix(1.1,0,0,1.6,220,-91.30000000000001)">
        <path id="SvgjsPath1041" d="M0 200 L100 71 L200 200" stroke-opacity="0.6" stroke="#000000" stroke-width="1" fill="none" transform="matrix(0.8,0,0,1,20,0)"></path>
        <path id="SvgjsPath1039" d="M0 200 L100 71 L200 200 L142 140 Q100 90 58 140 L0 200" transform="matrix(0.8,0,0,1,20,0)"></path>
        <path id="SvgjsPath1037" d="M0 200 L200 200 L142 140 Q100 90 58 140 L0 200" stroke="none" fill="#513d62" transform="matrix(0.8,0,0,1,20,0)"></path>
    </g>
    <g id="SvgjsG1035" transform="matrix(1.5,0,0,1.7,110,-104.85)">
        <path id="SvgjsPath1033" d="M0 200 L100 71 L200 200" stroke-opacity="0.6" stroke="#000000" stroke-width="1" fill="none" transform="matrix(0.8,0,0,1,20,0)"></path>
        <path id="SvgjsPath1031" d="M0 200 L100 71 L200 200 L142 140 Q100 90 58 140 L0 200" transform="matrix(0.8,0,0,1,20,0)"></path>
        <path id="SvgjsPath1029" d="M0 200 L200 200 L142 140 Q100 90 58 140 L0 200" stroke="none" fill="#513d62" transform="matrix(0.8,0,0,1,20,0)"></path>
    </g>
    <g id="SvgjsG1019" transform="matrix(1.3,0,0,1.3,51,-40.650000000000006)">
        <path id="SvgjsPath1017" d="M0 200 L100 71 L200 200" stroke-opacity="0.6" stroke="#000000" stroke-width="1" fill="none" transform="matrix(0.8,0,0,1,20,0)"></path>
        <path id="SvgjsPath1015" d="M0 200 L100 71 L200 200 L142 140 Q100 90 58 140 L0 200" transform="matrix(0.8,0,0,1,20,0)"></path>
        <path id="SvgjsPath1013" d="M0 200 L200 200 L142 140 Q100 90 58 140 L0 200" stroke="none" fill="#513d62" transform="matrix(0.8,0,0,1,20,0)"></path>
    </g>
    <g id="SvgjsG1027" transform="matrix(1,0,0,1,120,10)">
        <path id="SvgjsPath1025" d="M0 200 L100 71 L200 200" stroke-opacity="0.6" stroke="#000000" stroke-width="1" fill="none" transform="matrix(0.8,0,0,1,20,0)"></path>
        <path id="SvgjsPath1023" d="M0 200 L100 71 L200 200 L142 140 Q100 90 58 140 L0 200" transform="matrix(0.8,0,0,1,20,0)"></path>
        <path id="SvgjsPath1021" d="M0 200 L200 200 L142 140 Q100 90 58 140 L0 200" stroke="none" fill="#513d62" transform="matrix(0.8,0,0,1,20,0)"></path>
    </g>
    <g id="SvgjsG1051" transform="matrix(1.1,0,0,1.4,250,-64.19999999999999)">
        <path id="SvgjsPath1049" d="M0 200 L100 71 L200 200" stroke-opacity="0.6" stroke="#000000" stroke-width="1" fill="none" transform="matrix(0.8,0,0,1,20,0)"></path>
        <path id="SvgjsPath1047" d="M0 200 L100 71 L200 200 L142 140 Q100 90 58 140 L0 200" transform="matrix(0.8,0,0,1,20,0)"></path>
        <path id="SvgjsPath1045" d="M0 200 L200 200 L142 140 Q100 90 58 140 L0 200" stroke="none" fill="#513d62" transform="matrix(0.8,0,0,1,20,0)"></path>
    </g>
    <defs id="SvgjsDefs1002"></defs>
</svg>
